# xmcd
#
# Track frame offsets:
# 182
# 11477
# 22300
# 33805
# 45990
# 59030
# 70035
# 83912
# 98865
# 109970
# 121150
# 147742
# 159135
# 170545
#
# Disc length: 2426 seconds
#
#
# Revision: 5
# Processed by: cddbd v1.5.2PL0 Copyright (c) Steve Scherf et al.
# Submitted via: FreeRIP 2.951 
#
DISCID=b809780e
DTITLE=Bob Wills and His Texas Playboys - The Tiffany Transcriptions, Vol. 9
DYEAR=1990
DGENRE=Country
TTITLE0=Texas Playboy Rag
TTITLE1=My Life's Been A Pleasure
TTITLE2=Elmer's Tune
TTITLE3=G.I. Wish
TTITLE4=Milk Cow Blues
TTITLE5=Shame On You
TTITLE6=12th Street Rag
TTITLE7=In The Mood
TTITLE8=You Don't Care What Happens
TTITLE9=St. Louis Blues (Part 1)
TTITLE10=St. Louis Blues (Part 2)
TTITLE11=What Is This Thing Called Love
TTITLE12=Sentimental Journey
TTITLE13=Back Home in Indiana
EXTD=
EXTT0=
EXTT1=
EXTT2=
EXTT3=
EXTT4=
EXTT5=
EXTT6=
EXTT7=
EXTT8=
EXTT9=
EXTT10=
EXTT11=
EXTT12=
EXTT13=
PLAYORDER=
